<?xml version="1.0" standalone="no"?>
<!DOCTYPE svg PUBLIC "-//W3C//DTD SVG 20010904//EN"
 "http://www.w3.org/TR/2001/REC-SVG-20010904/DTD/svg10.dtd">
<svg version="1.0" xmlns="http://www.w3.org/2000/svg" viewBox="0 0 504 495">
<path fill-rule="evenodd" d="M393.0,490.4293289990276 L383.5,487.90732004075625 L375.5,483.87230499468376 L367.5,479.8372899486113 L362.3329523594776,475.8610327243445 L357.1659047189552,471.8847755000777 L352.7841776130474,467.19238775003885 L348.4024505071397,462.5 L344.3380850535159,456.5 L340.2737195998921,450.5 L337.083414448345,444.17264204815683 L333.893109296798,437.84528409631366 L332.0384819647919,430.17264204815683 L330.18385463278577,422.5 L328.95195321507714,412.42051838495513 L327.7200517973685,402.3410367699103 L328.91163128892424,393.92051838495513 L330.10321078048,385.5 L332.25060249983994,378.5 L334.39799421919986,371.5 L337.823519365867,365.0 L341.24904451253417,358.5 L344.0691025754969,354.5 L346.88916063845966,350.5 L351.19458031922983,345.9634776872609 L355.5,341.42695537452175 L361.11121661270283,336.90120238974566 L366.72243322540567,332.3754494049696 L374.11121661270283,328.7412611956277 L381.5,325.10707298628586 L390.5,322.3839233367034 L399.5,319.6607736871209 L415.0,319.5985452271215 L430.5,319.5363167671221 L439.0,321.91970487576236 L447.5,324.30309298440267 L452.67497913939854,326.5633396942926 L457.8499582787971,328.8235864041825 L464.17497913939854,333.10175507876977 L470.5,337.37992375335705 L476.3672640618812,342.9399618766785 L482.2345281237624,348.5 L486.48265521707515,354.5 L490.73078231038784,360.5 L493.79465421984696,367.0 L496.85852612930614,373.5 L498.3252737654884,378.0 L499.79202140167064,382.5 L501.10986809158555,388.0 L502.42771478150047,393.5 L502.36440896399336,406.0 L502.3011031464863,418.5 L500.05406973807123,427.5 L497.8070363296561,436.5 L494.37030276255683,443.7409259190223 L490.93356919545755,450.98185183804463 L485.8637686253509,457.7409259190223 L480.79396805524425,464.5 L477.6469840276221,467.8412761936144 L474.5,471.18255238722884 L468.5708457262044,475.7190312816573 L462.64169145240885,480.25551017608575 L455.0708457262044,484.0651142985089 L447.5,487.87471842093197 L439.5,490.0738845682671 L431.5,492.27305071560215 L417.0,492.6121943364505 L402.5,492.95133795729885 L393.0,490.4293289990276 z M426.5202020858761,446.36212043109197 L432.1144985377159,443.80096679265307 L438.55852242979176,442.69715235087256 L445.00254632186767,441.59333790909204 L452.0198324669117,442.796668954546 L459.0371186119557,444.0 L463.48337554748986,444.0 L467.929632483024,444.0 L468.96481624151204,442.06574145408933 L470.0,440.1314829081787 L469.98468722548296,406.81574145408933 L469.96937445096586,373.5 L469.23468722548296,372.39970400011134 L468.5,371.29940800022274 L466.1960038674121,370.08562238844127 L463.89200773482423,368.87183677665973 L459.1960038674121,367.446742679223 L454.5,366.0216485817863 L445.64434452114807,366.01082429089314 L436.78868904229614,366.0 L430.64434452114807,367.57415461111646 L424.5,369.14830922223285 L420.25,371.61630845056914 L416.0,374.0843076789055 L411.5139936534081,371.45533285935267 L407.0279873068162,368.8263580397999 L401.7639936534081,367.4250478952865 L396.5,366.0237377507731 L387.5,366.0237377507731 L378.5,366.0237377507731 L373.45387242005165,367.3675759088833 L368.4077448401033,368.7114140669934 L365.95387242005165,370.0054110336081 L363.5,371.2994080002228 L362.76531277451704,372.3997040001114 L362.03062554903414,373.5 L362.01531277451704,406.1849003388255 L362.0,438.86980067765097 L363.028968541569,441.5761930384042 L364.057937083138,444.2825853991574 L373.278968541569,443.3912926995787 L382.5,442.5 L390.08104582820357,442.62846914350763 L397.66209165640714,442.75693828701526 L402.58104582820357,445.01004129591524 L407.5,447.2631443048153 L411.0,448.62031331480836 L414.5,449.97748232480143 L417.71295281701816,449.4503781971662 L420.9259056340364,448.9232740695309 L426.5202020858761,446.36212043109197 z M28.318529280361368,470.7787843093911 L27.34439141979004,469.5 L24.546987854662376,464.5 L21.749584289534713,459.5 L11.800455722225918,442.8231574219742 L1.8513271549171222,426.1463148439484 L3.0807576923978868,423.8231574219742 L4.310188229878651,421.5 L12.009042174485772,409.5 L19.707896119092894,397.5 L24.103948059546447,390.02672713468144 L28.5,382.5534542693628 L31.0,381.29146893707843 L33.5,380.02948360479405 L42.0,380.0283964856894 L50.5,380.02730936658486 L52.75,380.63028604725343 L54.99999999999999,381.233262727922 L55.0,382.9688284107049 L55.0,384.7043940934878 L49.60915249120138,396.10219704674387 L44.218304982402756,407.5 L44.61818943214291,407.92570360760794 L45.01807388188307,408.35140721521583 L151.25903694094154,408.65672141391246 L257.5,408.96203561260904 L269.288329177666,407.9255022941992 L281.0766583553321,406.8889689757894 L288.288329177666,405.48838793398477 L295.5,404.0878068921802 L304.0,401.40043114013673 L312.5,398.71305538809327 L315.5,398.60652769404663 L318.5,398.5 L319.12152031246876,412.0 L319.74304062493746,425.5 L320.95162810419737,429.36989220827 L322.1602155834573,433.2397844165401 L321.1555912064149,434.2444087935853 L320.15096682937246,435.24903317063047 L308.82548341468623,438.10590295972884 L297.5,440.96277274882726 L286.0,442.4707621593365 L274.5,443.97875156984577 L162.0,444.057649293013 L49.5,444.1365470161803 L47.25,444.6766815379648 L45.0,445.2168160597492 L45.0,446.19604816052777 L45.0,447.17528026130634 L50.091080944675525,457.495436579674 L55.18216188935106,467.8155928980417 L54.82881659928934,469.65779644902085 L54.47547130922762,471.5 L41.88406922508016,471.7787843093911 L29.292667140932696,472.05756861878217 L28.318529280361368,470.7787843093911 z M91.35059108234299,388.75 L82.33274237344493,379.5 L76.01506667500234,371.5 L69.69739097655977,363.5 L64.53659970280344,355.5 L59.375808429047126,347.5 L55.65898525493428,340.7291395632478 L51.94216208082143,333.9582791264957 L48.01188275717692,325.0270027090207 L44.0816034335324,316.09572629154565 L41.578353383641975,308.6386738146333 L39.07510333375155,301.1816213377209 L36.996775467813634,293.34081066886046 L34.91844760187573,285.5 L33.46355156651546,278.0207949726584 L32.0086555311552,270.5415899453168 L30.829320158353255,254.7707949726584 L29.64998478555131,239.0 L30.843901209952243,223.25 L32.037817634353175,207.5 L33.4539027759329,199.0 L34.86998791751263,190.5 L37.49180190343709,181.5 L40.113615889361554,172.5 L41.46387923440376,168.5 L42.81414257944598,164.5 L45.80343407170371,157.0 L48.79272556396145,149.5 L53.92897914625149,139.0 L59.06523272854153,128.5 L60.46608150785015,126.6498622029205 L61.86693028715876,124.799724405841 L62.81046995994075,125.38286399335425 L63.75400963272274,125.9660035808675 L64.93016969251502,130.73300179043375 L66.10632975230729,135.5 L67.08353194640083,139.21963292975283 L68.06073414049436,142.93926585950564 L72.28036707024718,144.03189421685272 L76.5,145.12452257419983 L82.25,146.69403673013892 L88.0,148.26355088607804 L87.99999999999999,150.43177544304064 L87.99999999999997,152.60000000000323 L87.09213168021044,153.5500000000016 L86.18426336042091,154.5 L83.57540768711952,159.2223994787571 L80.96655201381813,163.94479895751422 L77.12564433302306,173.80056229567143 L73.28473665222799,183.65632563382863 L70.22887783030589,197.0781628169143 L67.17301900838379,210.5 L66.07990132513302,218.5 L64.98678364188225,226.5 L64.99339182094113,240.07593090584737 L65.00000000000001,253.65186181169472 L66.47839971122352,264.0759309058474 L67.95679942244703,274.5 L70.47686851409769,284.37218876968905 L72.99693760574834,294.24437753937804 L76.60007101789753,303.37218876968905 L80.20320443004672,312.5 L84.240591895341,320.0 L88.27797936063526,327.5 L94.7349135989366,337.23917426480625 L101.19184783723793,346.97834852961245 L108.4153126523689,355.23917426480625 L115.63877746749988,363.5 L123.06938873374995,370.0793184375844 L130.5,376.6586368751688 L137.0,381.23297829996875 L143.5,385.8073197247688 L152.4256448622687,390.6536598623844 L161.35128972453742,395.5 L161.75897819560205,396.75 L162.16666666666669,398.0 L131.26755322895386,398.0 L100.36843979124104,398.0 L91.35059108234299,388.75 z M276.7544618212904,352.9142258665156 L275.0089236425809,351.90561369432396 L269.5236674006816,344.4884438059481 L264.03841115878225,337.0712739175723 L261.67505658536396,335.5227445264584 L259.31170201194567,333.97421513534454 L246.90585100597283,333.3627475066533 L234.5,332.7512798779621 L230.2498489133419,333.9142246954898 L225.99969782668379,335.07716951301757 L219.9740556676375,344.0385847565088 L213.9484135085912,353.0 L211.1126316066421,353.0 L208.27684970469303,353.0 L199.38842485234653,348.91424590832 L190.5,344.8284918166401 L185.0,342.2688774340662 L179.5,339.7092630514923 L177.75,338.19964396363406 L176.0,336.6900248757758 L176.0,333.00156289088113 L176.0,329.31310090598646 L178.0,323.5 L179.99999999999997,317.68689909401354 L180.0,314.9837895519298 L180.0,312.2806800098461 L171.75,302.3592972147736 L163.5,292.4379144197011 L160.8675116495816,288.96895720985054 L158.23502329916317,285.5 L151.3675116495816,285.81269473513964 L144.5,286.12538947027934 L139.0,286.31269473513964 L133.5,286.5 L132.31830831852582,282.5 L131.13661663705165,278.5 L127.06830831852581,264.6478070865884 L122.99999999999997,250.7956141731768 L122.99999999999999,247.42086006644269 L123.0,244.0461059597086 L125.55000503919162,242.3752784862985 L128.10001007838324,240.7044510128884 L136.8000050391916,237.5844847165195 L145.5,234.46451842015065 L149.69972173893171,217.9822592100753 L153.8994434778634,201.5 L153.94972173893171,198.57571022679593 L154.0,195.65142045359187 L147.0,188.43228985428902 L139.99999999999997,181.21315925498615 L139.99999999999997,179.19824800790127 L139.99999999999997,177.18333676081636 L144.69867682930624,171.34166838040818 L149.39735365861247,165.5 L156.94867682930624,157.00219161077513 L164.5,148.50438322155028 L166.0,147.2839949826463 L167.5,146.06360674374233 L168.68448793885426,146.03180337187115 L169.86897587770852,146.0 L177.41934305253088,152.0 L184.96971022735323,158.00000000000003 L187.7890744361294,158.0 L190.6084386449056,157.99999999999997 L195.38689956043646,154.96958984826733 L200.16536047596736,151.93917969653467 L207.83268023798368,148.08068284085297 L215.5,144.22218598517128 L217.1578830687584,142.36109299258564 L218.8157661375168,140.5 L220.0215900890786,130.82759053827124 L221.22741404064035,121.15518107654248 L223.09900858633046,118.07759053827125 L224.97060313202059,115.00000000000003 L227.2353015660103,114.87569237364684 L229.5,114.75138474729366 L246.0,114.93888807147054 L262.5,115.12639139564743 L264.1424538517306,115.59644954690415 L265.78490770346116,116.06650769816088 L266.89136124907304,118.78325384908044 L267.9978147946849,121.5 L268.74890739734246,131.39446743215825 L269.5,141.28893486431647 L271.0,142.11198196668653 L272.5,142.9350290690566 L279.5,145.62343315360414 L286.5,148.3118372381517 L292.5,151.96644495902973 L298.5,155.62105267990773 L300.5478611704681,156.92483534033855 L302.5957223409361,158.22861800076936 L311.9073013810047,152.11430900038474 L321.2188804210732,146.0000000000001 L322.9868711646755,146.00000000000003 L324.7548619082778,145.99999999999994 L331.6185732091382,153.74999999999997 L338.48228450999864,161.5 L338.9911422549993,162.0 L339.5,162.5 L345.75,169.28658649760507 L352.0,176.07317299521014 L352.0,178.87029798498435 L352.0,181.66742297475855 L344.5,189.74044955696326 L337.0,197.81347613916796 L337.0,199.39423781700037 L337.0,200.97499949483276 L339.5,210.59697581052563 L342.0,220.21895212621854 L342.0,225.99869210079947 L342.00000000000006,231.7784320753804 L343.75,233.75619743918827 L345.5,235.7339628029961 L351.5,237.95831009988336 L357.5,240.18265739677065 L361.27149924734755,241.7528978494385 L365.0429984946951,243.3231383021064 L365.62462738668415,245.6405323915434 L366.2062562786732,247.9579264809804 L363.3866151828208,259.7289632404902 L360.56697408696834,271.5 L357.9931642590619,279.0 L355.4193544311555,286.5 L342.8219054572759,286.5 L330.2244564833963,286.5 L325.2037540022362,292.76296220688243 L320.1830515210762,299.0259244137648 L314.5915257605381,305.1617326419871 L309.0,311.2975408702094 L309.00763942390034,313.89877043510467 L309.0152788478007,316.5 L311.0,323.0 L312.9847211521993,329.5 L312.99236057609966,333.09501243788793 L313.0,336.6900248757758 L311.25,338.26811552890064 L309.5,339.84620618202547 L296.0,346.2960790093501 L282.5,352.7459518366747 L280.5,353.33439493769094 L278.5,353.92283803870725 L276.7544618212904,352.9142258665156 z M263.5839839683211,293.131854180001 L270.6679679366422,291.0141931269508 L276.68062338376035,287.1280263464679 L282.69327883087857,283.241859565985 L288.8999471883468,276.8709297829925 L295.10661554581503,270.5 L298.3033077729075,264.02790616681096 L301.5,257.55581233362193 L301.8168329802536,240.69816917270248 L302.13366596050724,223.840526011783 L300.66168824427086,219.52050905985112 L299.1897105280345,215.20049210791925 L295.74757299923994,209.8502460539596 L292.3054354704454,204.5 L287.58340928420057,199.27598284060468 L282.8613830979557,194.05196568120937 L275.4701625319366,189.10841585291524 L268.07894196591747,184.16486602462115 L262.6355636290115,182.58243301231056 L257.19218529210553,181.0 L245.6614687103783,181.0 L234.1307521286511,181.00000000000003 L226.81537606432556,182.52334714565967 L219.5,184.04669429131928 L214.15062621607365,186.64551504147656 L208.80125243214727,189.24433579163383 L203.07388554116554,194.87216789581692 L197.3465186501838,200.5 L193.66998100610942,207.10196214226755 L189.99344336203504,213.7039242845351 L188.50754597191064,218.60196214226755 L187.02164858178625,223.5 L187.01082429089314,233.855655478852 L187.0,244.21131095770394 L188.58066911044548,250.31131226379176 L190.16133822089097,256.41131356987955 L191.70217207591796,259.4556567849398 L193.24300593094495,262.5 L197.23820811697115,268.5 L201.23341030299736,274.5 L205.86670515149868,279.34303301461193 L210.5,284.1860660292238 L216.2081439565431,288.1018702223171 L221.91628791308617,292.01767441541034 L224.7081439565431,293.15625607149025 L227.5,294.2948377275702 L231.5,295.0874879069661 L235.5,295.880138086362 L246.0,295.5648266597067 L256.5,295.2495152330513 L263.5839839683211,293.131854180001 z M440.5,311.9049484261808 L437.5,310.98180233973557 L424.505239968788,309.9128078053225 L411.51047993757595,308.8438132709093 L411.039744669165,308.37307800249823 L410.569009400754,307.90234273408714 L413.23534257779045,300.20117136704357 L415.90167575482684,292.5 L417.8235784735743,285.5 L419.74548119232173,278.5 L420.854574708807,273.0 L421.9636682252922,267.5 L422.9818341126461,259.0909958078447 L424.0,250.68199161568944 L423.99131046390255,241.5909958078447 L423.98262092780504,232.5 L422.5124306528628,220.5 L421.0422403779205,208.5 L419.5641622624232,201.70609276022086 L418.0860841469259,194.9121855204417 L414.82063107079745,184.70609276022086 L411.555177994669,174.5 L404.35083508660205,160.0 L397.14649217853514,145.5 L389.9558831274485,136.0 L382.76527407636183,126.5 L377.6326370381809,121.13664839100838 L372.5,115.77329678201676 L364.0541473098276,108.32081058827532 L355.6082946196553,100.86832439453389 L347.5541473098276,95.57537677240799 L339.5,90.2824291502821 L331.87096979645116,86.25035411729597 L324.24193959290227,82.21827908430984 L313.87096979645116,78.11709477477206 L303.5,74.01591046523427 L295.5,71.96626027081447 L287.5,69.91661007639468 L276.05023067327124,67.94114136427271 L264.6004613465425,65.96567265215074 L251.55023067327124,65.35363029550645 L238.5,64.74158793886215 L227.52899381514308,65.93676167489973 L216.55798763028616,67.1319354109373 L206.52899381514308,69.10674283508003 L196.5,71.08155025922275 L191.5,72.61966294327357 L186.5,74.15777562732438 L176.0,78.26452326717464 L165.5,82.3712709070249 L162.0,84.28224491272333 L158.5,86.19321891842176 L153.0,89.29864581885688 L147.5,92.404072719292 L139.5,98.08291675648525 L131.5,103.76176079367849 L129.51327531531456,105.97119890064558 L127.52655063062912,108.18063700761266 L129.412097686968,109.55938267746609 L131.29764474330688,110.93812834731952 L136.39882237165344,112.60454133081062 L141.5,114.27095431430172 L144.24999999999997,115.66115730338247 L146.99999999999994,117.05136029246322 L146.99999999999997,118.85253291203925 L147.0,120.65370553161529 L137.4270410009227,128.32685276580764 L127.85408200184543,135.99999999999997 L126.29578703184458,136.0 L124.73749206184374,136.0 L108.11874603092187,131.9976491067233 L91.5,127.99529821344657 L87.2690020243457,126.87300828899662 L83.03800404869139,125.75071836454666 L81.9491448165601,124.43872325263006 L80.86028558442882,123.12672814071345 L77.06747239808627,108.81336407035673 L73.27465921174371,94.5 L71.42353867357258,87.73248687716179 L69.57241813540145,80.96497375432358 L79.53620906770072,70.9517357784176 L89.5,60.93849780251162 L91.47283728336495,61.21924890125581 L93.4456745667299,61.5 L95.24042543941951,66.5 L97.03517631210912,71.5 L98.60029592898627,75.74999999999999 L100.16541554586342,79.99999999999997 L101.48047185134863,79.99999999999997 L102.79552815683383,79.99999999999997 L109.64776407841691,74.64350771776263 L116.5,69.28701543552529 L127.5,62.03826939685234 L138.5,54.789523358179395 L149.5,49.41574306984512 L160.5,44.04196278151085 L174.14033871094475,39.54776626242236 L187.7806774218895,35.05356974333387 L196.64033871094475,33.10034127510471 L205.5,31.147112806875555 L216.95983826365818,29.573556403437806 L228.41967652731634,28.000000000000057 L244.15862188274025,27.99999999999997 L259.89756723816413,27.999999999999886 L271.69878361908206,29.545969206454373 L283.5,31.09193841290886 L290.5,32.6314365513891 L297.5,34.17093468986934 L304.5,36.15816738083498 L311.5,38.14540007180062 L320.0,41.171360924485015 L328.5,44.19732177716941 L341.5,50.509043904107244 L354.5,56.82076603104508 L365.9711037758559,64.52681772148398 L377.4422075517119,72.23286941192288 L384.4711037758559,77.97737388387488 L391.5,83.72187835582687 L400.6708239384275,93.31596564975169 L409.8416478768549,102.9100529436765 L415.80913183526616,110.74926517410235 L421.7766157936774,118.58847740452819 L427.43918955873136,127.27563257439982 L433.1017633237853,135.96278774427145 L438.9523293285609,148.23139387213573 L444.8028953333365,160.5 L447.88278968116396,169.56434677439648 L450.9626840289914,178.62869354879297 L453.8759875505079,191.06434677439648 L456.78929107202435,203.5 L458.14464553601215,213.5 L459.5,223.5 L459.4311069653876,243.5 L459.36221393077517,263.5 L457.64131493573694,273.0 L455.9204159406987,282.5 L452.3394422859418,295.5 L448.7584686311848,308.5 L447.3561813357382,310.75 L445.9538940402916,313.0 L444.72694702014576,312.91404725631304 L443.5,312.8280945126261 L440.5,311.9049484261808 z M464.67006937100314,196.25 L464.2221047532564,195.5 L463.01508929323916,189.5 L461.80807383322195,183.5 L459.7973832396822,177.0 L457.78669264614246,170.5 L456.4666380021216,166.5 L455.1465833581007,162.5 L452.5775683984814,155.73853328271503 L450.008553438862,148.97706656543005 L445.37688261118916,139.73853328271503 L440.7452117835163,130.5 L434.5174852651502,121.0 L428.28975874678406,111.5 L427.14487937339203,109.31574145408936 L426.0,107.13148290817871 L426.0,77.45733342421445 L426.0,47.78318394025018 L423.3232290442369,48.455010684008926 L420.6464580884738,49.12683742776767 L410.779589070069,53.64964546758888 L400.91272005166417,58.1724535074101 L399.45636002583205,56.96378203826288 L398.0,55.75511056911566 L398.0,51.53117999443106 L398.0,47.307249419746455 L398.65827624621573,38.03340361406684 L399.31655249243147,28.75955780838723 L403.40827624621573,26.346056046295587 L407.5,23.932554284203945 L426.0,12.97914215476618 L444.5,2.0257300253284143 L445.78355343975875,2.0128650126642498 L447.06710687951755,2.0000000000000853 L456.78355343975875,7.819775867870632 L466.5,13.639551735741179 L478.7932074008868,20.966251089010115 L491.08641480177357,28.29295044227905 L492.0432074008868,30.080733767050248 L493.0,31.868517091821445 L493.0,44.46564334224965 L493.0,57.06276959267785 L491.5802678463732,57.60757193780732 L490.16053569274646,58.15237428293679 L482.8302678463732,54.661155690626046 L475.5,51.1699370983153 L471.6278760453272,49.58496854915762 L467.75575209065437,47.99999999999994 L466.8249589170057,47.99999999999996 L465.894165743357,47.99999999999997 L466.1970828716785,122.5003056418164 L466.5,197.00061128363282 L465.80901699437493,197.0003056418164 L465.1180339887499,197.0 L464.67006937100314,196.25 z M407.4625,435.14541497277753 L406.5,434.2658299455551 L401.5718611680918,432.63291497277754 L396.6437223361836,431.0 L388.5718611680918,431.0055769344027 L380.5,431.0111538688054 L376.6301077917286,432.08568472613126 L372.7602155834572,433.16021558345716 L371.70414299343605,432.1041429934361 L370.6480704034149,431.048070403415 L370.314334221638,407.77403520170753 L369.98059803986104,384.5 L370.8067287919372,381.5 L371.6328595440134,378.5 L375.5664297720067,377.09273268474743 L379.5,375.68546536949486 L388.0,375.6248326161885 L396.5,375.5641998628821 L400.9080166023404,376.86319345685837 L405.3160332046808,378.16218705083463 L408.1750204560385,381.0211743021924 L411.03400770739626,383.8801615535501 L410.76700385369816,409.6072311278484 L410.5,435.33430070214666 L409.4625,435.6796503510733 L408.425,436.025 L407.4625,435.14541497277753 z M422.0,408.51254458062243 L422.0,382.02508916124486 L425.75,379.6660411319104 L429.5,377.3069931025759 L434.88991890158525,376.02018976536743 L440.27983780317055,374.73338642815895 L447.13077424467724,375.30774431655107 L453.98171068618393,375.8821022049432 L456.740855343092,377.204525760661 L459.5,378.52694931637876 L459.5,405.51347465818935 L459.5,432.5 L457.5,432.19555969095916 L455.5,431.89111938191826 L445.5,431.3365875724097 L435.5,430.78205576290117 L429.53465880489296,432.89102788145055 L423.56931760978597,435.0 L422.78465880489296,435.0 L422.0,435.0 L422.0,408.51254458062243 z M240.0,284.38447956872164 L237.5,283.95291289118967 L233.0,282.8181164833087 L228.5,281.6833200754277 L223.51087918846258,279.2036424794638 L218.52175837692516,276.7239648834999 L212.67722040895296,270.7510069952067 L206.83268244098073,264.7780491069135 L203.7625239107869,258.1449570187156 L200.69236538059312,251.51186493051776 L199.67083599086186,244.42108881136534 L198.64930660113063,237.33031269221294 L200.42761666809344,229.91515634610647 L202.20592673505627,222.5 L204.85296336752813,217.53994715793377 L207.5,212.57989431586753 L213.1762619520268,206.75894805693176 L218.8525239040536,200.93800179799598 L226.6762619520268,197.2865141587607 L234.5,193.6350265195254 L245.0,193.61783323376858 L255.5,193.60063994801172 L260.5,195.3627186834828 L265.5,197.1247974189539 L268.0,198.6999966968125 L270.5,200.27519597467108 L275.3252356980872,203.88759798733554 L280.1504713961744,207.5 L284.0600584099523,213.34122460539342 L287.96964542373024,219.18244921078684 L289.98482271186515,225.9490375061029 L292.0,232.71562580141898 L292.0,238.45390554676203 L292.0,244.19218529210508 L290.3732090640699,249.84609264605254 L288.74641812813985,255.5 L286.73882337772454,259.5 L284.7312286273093,263.5 L280.83926429839914,268.17025257876185 L276.947299969489,272.84050515752364 L271.7236499847445,276.27823552209304 L266.5,279.7159658866625 L260.9954857577701,281.7520996856801 L255.4909715155402,283.7882334846977 L248.9954857577701,284.3021398654756 L242.5,284.8160462462536 L240.0,284.38447956872164 z M256.7145269875689,244.25717139928378 L272.9290539751378,227.5 L272.9645269875689,224.80670396864906 L273.0,222.11340793729812 L270.7774937565946,220.55670396864906 L268.55498751318913,219.0 L266.8550438336224,219.0 L265.15510015405573,219.0 L251.82755007702787,232.99829614916035 L238.5,246.99659229832073 L237.6260716967464,246.99829614916035 L236.75214339349284,247.0 L232.79108497737994,242.5 L228.83002656126703,238.0 L226.4875934296664,238.0 L224.14516029806578,238.0 L222.0725801490329,240.63485869180127 L220.0,243.26971738360254 L220.0,244.1285120721894 L220.0,244.98730676077628 L227.0550909004959,252.99365338038814 L234.11018180099182,261.0 L237.3050909004959,261.0071713992838 L240.5,261.01434279856755 L256.7145269875689,244.25717139928378 z"/>
</svg>